<svg xmlns="http://www.w3.org/2000/svg" fill="none"
className="fill-white transition-all duration-200 hover:fill-badge-red"
>
<path d="M26.435 14.785a.044.044 0 0 0-.022-.02 14.076 14.076 0 0 0-3.473-1.077.053.053 0 0 0-.056.027 9.79 9.79 0 0 0-.432.888 13 13 0 0 0-3.901 0 8.98 8.98 0 0 0-.44-.888.055.055 0 0 0-.055-.027c-1.2.207-2.367.57-3.473 1.077a.05.05 0 0 0-.023.02c-2.212 3.303-2.818 6.525-2.52 9.707a.058.058 0 0 0 .022.04 14.152 14.152 0 0 0 4.26 2.153.055.055 0 0 0 .06-.02c.329-.447.62-.921.871-1.417a.055.055 0 0 0-.01-.063.054.054 0 0 0-.02-.012 9.324 9.324 0 0 1-1.33-.634.054.054 0 0 1-.022-.07.055.055 0 0 1 .017-.02c.089-.068.179-.137.264-.208a.053.053 0 0 1 .055-.007c2.792 1.274 5.816 1.274 8.575 0a.052.052 0 0 1 .056.007c.085.07.174.14.265.207a.055.055 0 0 1 .021.047.054.054 0 0 1-.026.044c-.425.248-.87.46-1.332.633a.055.055 0 0 0-.029.076c.256.493.547.966.871 1.417a.055.055 0 0 0 .06.02 14.105 14.105 0 0 0 4.268-2.153.056.056 0 0 0 .022-.039c.356-3.679-.596-6.875-2.523-9.708Zm-8.764 7.77c-.841 0-1.534-.772-1.534-1.72 0-.947.68-1.718 1.534-1.718.86 0 1.546.778 1.533 1.719 0 .947-.68 1.719-1.534 1.719Zm5.669 0c-.84 0-1.533-.772-1.533-1.72 0-.947.679-1.718 1.533-1.718.86 0 1.547.778 1.534 1.719 0 .947-.673 1.719-1.534 1.719Z" />
</svg>