<svg width="300" height="300" viewBox="0 0 300 300" fill="none" xmlns="http://www.w3.org/2000/svg">
<g filter="url(#filter0_d_2572_2760)">
<path fill-rule="evenodd" clip-rule="evenodd" d="M162.774 181.214L151.319 192.668L108.026 149.376L119.47 137.932L106.934 125.395C106.934 125.395 105.488 123.95 104.043 125.395L100.966 128.472C98.8943 130.544 96.2263 131.915 93.3359 132.395L70.0503 136.258L91.0325 115.276C92.478 113.831 93.9235 112.385 96.8149 112.385H114.162C115.428 112.385 116.416 112.662 117.249 113.095L135.592 94.752C135.592 94.752 139.213 91.1311 144.645 89.3206L189.409 70.7102C194.84 68.8998 200.272 70.7103 203.893 74.3313L225.619 96.0571C229.239 99.6781 231.05 105.11 229.239 110.541L210.106 154.782C208.296 160.213 204.674 163.834 204.674 163.834L186.533 181.976C187.246 182.973 187.752 184.178 187.752 185.888V203.235C187.752 206.127 186.307 207.572 184.861 209.018L163.879 230L167.742 206.714C168.222 203.824 169.594 201.156 171.665 199.084L174.742 196.007C175.779 194.97 175.328 193.933 174.99 193.43L162.774 181.214ZM130.583 125.915L142.505 137.837V157.545L162.3 157.545L174.078 169.323L222.899 120.502C224.71 118.692 222.899 116.881 222.899 116.881L183.068 77.0506C183.068 77.0506 181.258 75.2401 179.447 77.0506L130.583 125.915Z" fill="#FBCB4A"/>
<path d="M98.8172 160.578C94.0843 165.311 90.9062 171.373 89.7064 177.958L86.414 196.028L111.724 170.719L100.2 159.195L98.8172 160.578Z" fill="#FBCB4A"/>
<path d="M122.993 211.327C129.578 210.128 135.641 206.949 140.374 202.217L141.757 200.834L130.233 189.31L104.923 214.62L122.993 211.327Z" fill="#FBCB4A"/>
</g>
<path fill-rule="evenodd" clip-rule="evenodd" d="M162.774 181.214L151.319 192.668L108.026 149.376L119.47 137.932L106.934 125.395C106.934 125.395 105.488 123.95 104.043 125.395L100.966 128.472C98.8943 130.544 96.2263 131.915 93.3359 132.395L70.0503 136.258L91.0325 115.276C92.478 113.831 93.9235 112.385 96.8149 112.385H114.162C115.428 112.385 116.416 112.662 117.249 113.095L135.592 94.752C135.592 94.752 139.213 91.1311 144.645 89.3206L189.409 70.7102C194.84 68.8998 200.272 70.7103 203.893 74.3313L225.619 96.0571C229.239 99.6781 231.05 105.11 229.239 110.541L210.106 154.782C208.296 160.213 204.674 163.834 204.674 163.834L186.533 181.976C187.246 182.973 187.752 184.178 187.752 185.888V203.235C187.752 206.127 186.307 207.572 184.861 209.018L163.879 230L167.742 206.714C168.222 203.824 169.594 201.156 171.665 199.084L174.742 196.007C175.779 194.97 175.328 193.933 174.99 193.43L162.774 181.214ZM130.583 125.915L142.505 137.837V157.545L162.3 157.545L174.078 169.323L222.899 120.502C224.71 118.692 222.899 116.881 222.899 116.881L183.068 77.0506C183.068 77.0506 181.258 75.2401 179.447 77.0506L130.583 125.915Z" fill="#FBCB4A"/>
<path d="M98.8172 160.578C94.0843 165.311 90.9062 171.373 89.7064 177.958L86.414 196.028L111.724 170.719L100.2 159.195L98.8172 160.578Z" fill="#FBCB4A"/>
<path d="M122.993 211.327C129.578 210.128 135.641 206.949 140.374 202.217L141.757 200.834L130.233 189.31L104.923 214.62L122.993 211.327Z" fill="#FBCB4A"/>
<defs>
<filter id="filter0_d_2572_2760" x="-4" y="0" width="308" height="308" filterUnits="userSpaceOnUse" color-interpolation-filters="sRGB">
<feFlood flood-opacity="0" result="BackgroundImageFix"/>
<feColorMatrix in="SourceAlpha" type="matrix" values="0 0 0 0 0 0 0 0 0 0 0 0 0 0 0 0 0 0 127 0" result="hardAlpha"/>
<feOffset dy="4"/>
<feGaussianBlur stdDeviation="2"/>
<feComposite in2="hardAlpha" operator="out"/>
<feColorMatrix type="matrix" values="0 0 0 0 0 0 0 0 0 0 0 0 0 0 0 0 0 0 0.25 0"/>
<feBlend mode="normal" in2="BackgroundImageFix" result="effect1_dropShadow_2572_2760"/>
<feBlend mode="normal" in="SourceGraphic" in2="effect1_dropShadow_2572_2760" result="shape"/>
</filter>
</defs>
</svg>
