<svg width="300" height="300" viewBox="0 0 300 300" fill="none" xmlns="http://www.w3.org/2000/svg">
<path d="M237.125 160.605H242.05L242.079 160.62V178.256H236.339C232.26 178.256 228.18 178.259 224.102 178.262C215.946 178.269 207.792 178.275 199.644 178.256C196.04 178.241 193.044 179.22 191.501 182.794C189.929 186.428 191.487 189.187 194.053 191.709C198.709 196.3 203.334 200.923 207.865 205.453C209.569 207.156 211.26 208.846 212.934 210.516C211.422 212.01 209.928 213.488 208.465 214.934C204.845 218.513 201.415 221.903 198.384 224.903C196.245 222.902 194.055 220.874 191.837 218.82C185.688 213.125 179.317 207.223 173.169 201.097C171.529 199.458 170.748 196.842 170.012 194.381C169.883 193.948 169.755 193.52 169.624 193.103C169.016 191.145 168.927 188.965 168.927 186.888C168.907 176.136 168.908 165.38 168.908 154.625C168.909 140.796 168.909 126.967 168.868 113.142C168.853 107.654 170.677 103.101 174.43 99.111C180.088 93.0998 185.693 87.0349 191.261 81.0102C193.428 78.6655 195.589 76.3269 197.746 74L198.223 74.4789C203.186 79.4556 207.996 84.28 213.127 89.4107C212.916 89.6321 212.685 89.879 212.441 90.1412C211.965 90.6519 211.436 91.2202 210.887 91.769L193.593 109.063C191.234 111.422 189.974 114.166 191.338 117.429C192.688 120.662 195.566 121.166 198.725 121.166C203.808 121.149 208.891 121.154 213.973 121.159C222.106 121.167 230.239 121.174 238.371 121.092C241.382 121.063 242.658 121.849 242.391 125.008C242.154 127.707 242.139 130.451 242.391 133.151C242.717 136.651 241.59 137.882 237.912 137.808C230.416 137.66 222.921 137.683 215.426 137.706C211.678 137.718 207.931 137.729 204.183 137.719C200.341 137.719 196.722 138.357 194.023 141.309C190.834 144.765 189.87 148.858 191.665 153.293C193.563 157.995 197.256 160.502 202.285 160.561C210.672 160.647 219.06 160.632 227.448 160.617C230.674 160.611 233.9 160.605 237.125 160.605Z" fill="#FBCB4A"/>
<path d="M88.9809 208.243C88.2159 209.008 87.4535 209.77 86.6939 210.53L86.7235 210.515C90.462 214.243 94.0479 217.819 97.6337 221.394C99.1694 222.925 100.705 224.457 102.253 226C104.033 224.213 105.828 222.402 107.637 220.576C112.719 215.449 117.913 210.209 123.196 205.057C128.372 199.999 130.76 193.888 130.76 186.784C130.767 176.244 130.765 165.705 130.763 155.166C130.761 141.113 130.758 127.061 130.775 113.008C130.79 107.535 128.892 102.907 125.109 98.9768C123.276 97.0661 121.48 95.1113 119.685 93.1576C118.721 92.1085 117.757 91.0597 116.788 90.0182C114.837 87.9289 112.886 85.8418 110.967 83.789C107.941 80.5519 104.994 77.4 102.253 74.4592C96.9874 79.7098 91.9593 84.7231 86.768 89.8847C88.5722 91.6844 90.4004 93.5121 92.2467 95.358C96.5477 99.658 100.947 104.056 105.368 108.425C107.874 110.902 109.773 113.572 108.29 117.265C106.821 120.899 103.632 121.166 100.265 121.166C89.551 121.129 78.8469 121.143 68.136 121.158C65.9915 121.16 63.8467 121.163 61.7016 121.166C60.7889 121.166 59.8763 121.227 58.87 121.294C58.3062 121.332 57.713 121.371 57.0739 121.403C57.0739 122.731 57.0872 124.026 57.1003 125.298C57.1308 128.271 57.16 131.115 57.0146 133.951C56.8663 136.844 57.8304 137.808 60.7671 137.778C72.1435 137.644 83.5049 137.674 94.8813 137.778C97.1803 137.808 99.6276 138.03 101.749 138.846C106.762 140.774 109.55 146.069 108.601 151.082C107.548 156.63 102.935 160.531 96.9874 160.575C89.1267 160.639 81.2735 160.627 73.4171 160.614C70.2741 160.61 67.1305 160.605 63.9857 160.605H57.3261V178.24H61.6274C65.8755 178.24 70.1219 178.244 74.3672 178.247C82.8545 178.253 91.3375 178.26 99.8204 178.24C103.558 178.225 106.673 179.219 108.186 183.016C109.669 186.724 107.934 189.409 105.397 191.901C99.8532 197.367 94.3545 202.867 88.9809 208.243Z" fill="#FBCB4A"/>
</svg>
