<svg viewBox="0 0 300 300" fill="none" xmlns="http://www.w3.org/2000/svg">
<path d="M144.429 70.0001L160.206 148.128L160.212 148.121L238.333 164.251L224.274 178.187C215.003 187.378 201.777 191.372 188.968 188.849L132.006 177.629L186.34 230H136.071L61.667 158.081L83.3253 136.139C84.8386 134.606 87.3036 134.575 88.8552 136.069L130.586 176.262L119.615 119.257C117.148 106.438 121.2 93.2292 130.431 83.9981L144.429 70.0001Z" />
<path d="M191.419 136.173C180.827 136.173 172.24 127.584 172.24 116.99C172.24 106.395 180.827 97.8069 191.419 97.8069C202.011 97.8069 210.597 106.395 210.597 116.99C210.597 127.584 202.011 136.173 191.419 136.173Z" />
</svg>
