<svg  viewBox="0 0 300 300" fill="none" xmlns="http://www.w3.org/2000/svg">
<path d="M149.695 178.375L50 85.7086H109.389C119.352 85.7086 128.992 89.2492 136.587 95.6985L202.834 151.954L176.91 177.878C169.45 185.339 157.423 185.558 149.695 178.375Z" />
<path d="M204.565 150.225L181.597 130.325C173.914 123.669 173.852 111.769 181.466 105.034L204.565 84.5986V150.225Z" />
<path d="M146.217 178.993L123.895 157.892V227.962L145.998 207.696C154.386 200.004 154.487 186.811 146.217 178.993Z" />
<path d="M206.806 84.0383L206.806 105.003C206.806 117.28 216.758 127.232 229.035 127.232H250L206.806 84.0383Z" />
</svg>
