<svg width="300" height="300" viewBox="0 0 300 300" fill="none" xmlns="http://www.w3.org/2000/svg">
<path fill-rule="evenodd" clip-rule="evenodd" d="M190.572 205.374C177.583 218.513 158.923 224.355 140.761 220.967L88.8812 211.292L78.1134 159.573C74.4387 141.467 79.9837 122.716 92.9154 109.521L109.568 92.5379C122.557 79.3988 141.217 73.5574 159.379 76.9448L211.259 86.6206L222.027 138.339C225.701 156.446 220.156 175.196 207.225 188.391L190.572 205.374ZM101.662 101.421L181.443 117.055L198.478 196.491L118.697 180.857L101.662 101.421Z" fill="#F03619"/>
<path d="M150.179 168.366C139.587 168.366 131 159.777 131 149.183C131 138.588 139.587 130 150.179 130C160.771 130 169.357 138.588 169.357 149.183C169.357 159.777 160.771 168.366 150.179 168.366Z" fill="#F03619"/>
</svg>
