<svg width="300" height="300" viewBox="0 0 300 300" fill="none" xmlns="http://www.w3.org/2000/svg">
<g clip-path="url(#clip0_2572_2717)">
<path d="M184.315 70.3401L229.66 115.685L214.341 131.004L168.996 85.6595L184.315 70.3401Z" fill="#FBCB4A"/>
<path d="M168.996 85.6595L157.668 74.3339C155.701 72.3413 153.244 70.0099 149.319 70L126.576 71.048C122.652 71.0381 120.489 72.8654 118.531 74.8481L107.72 85.6599L214.341 192.281L225.153 181.469C227.11 179.487 229.067 177.504 229.057 173.529L228.996 149.677C228.986 145.702 227.018 143.709 225.051 141.717L214.341 131.004L199.021 146.324L153.676 100.979L168.996 85.6595Z" fill="#FBCB4A"/>
<path d="M115.685 229.66L70.3398 184.315L85.6602 168.995L74.9488 158.283C72.9813 156.291 71.0138 154.298 71.0037 150.323L70.9427 126.471C70.9325 122.496 72.8899 120.513 74.8472 118.531L85.659 107.719L192.28 214.34L181.468 225.152C179.511 227.135 177.348 228.962 173.423 228.952L150.681 230C146.756 229.99 144.299 227.659 142.332 225.666L131.005 214.34L146.323 199.022L100.978 153.677L85.6602 168.995L131.005 214.34L115.685 229.66Z" fill="#FBCB4A"/>
</g>
<defs>
<clipPath id="clip0_2572_2717">
<rect width="300" height="300" rx="8" fill="white"/>
</clipPath>
</defs>
</svg>
