<svg  viewBox="0 0 300 300" fill="none" xmlns="http://www.w3.org/2000/svg">
<path d="M119.351 98.6751C112.931 117.983 115.375 139.04 125.827 156.282L125.878 156.249L146.012 183.934L144.8 184.68C138.638 177.089 130.954 172.809 123.877 170.542C120.465 169.684 116.903 169.235 113.248 169.212L76.7776 168.978L102.332 204.355C110.394 215.517 123.296 222.165 137.065 222.251L173.365 222.479L173.381 222.5L181.906 196.185C187.866 177.786 184.663 157.646 173.29 142.004L157.815 120.576L154.425 116.092L155.622 115.324C164.016 125.28 174.999 129.358 183.601 130.659C184.615 130.733 185.638 130.773 186.669 130.78L223.222 131.021L197.658 95.6297C189.597 84.4697 176.697 77.8224 162.931 77.7341L126.39 77.5L126.391 77.5008L119.351 98.6751Z" />
</svg>
