<svg width="300" height="300" viewBox="0 0 300 300" fill="none" xmlns="http://www.w3.org/2000/svg">
<path d="M96.1433 110.763L116.716 80.0001C118.462 82.6307 120.697 85.0641 123.376 87.209C130.472 92.892 140.098 96.0847 150.134 96.0847C160.171 96.0847 169.796 92.892 176.893 87.209C179.263 85.3111 181.951 82.2865 183.595 80.0001L203.312 111.38C188.995 122.088 170.137 128.1 150.491 128.172L211.059 128.172C213.235 128.172 215.268 129.258 216.478 131.067L236.091 160.394L63.9094 160.394L82.5785 131.181C83.7765 129.306 85.8476 128.172 88.0723 128.172L149.778 128.172C129.757 128.098 110.556 121.857 96.1433 110.763Z" fill="#F03619"/>
<path d="M98.8075 181.884L98.8083 220L131.413 220L131.413 164.16C105.48 164.171 99.8357 173.919 98.8075 181.884Z" fill="#F03619"/>
<path d="M203.163 181.926C202.149 173.954 196.531 164.173 170.557 164.161V220H203.162L203.163 181.926Z" fill="#F03619"/>
</svg>
